<?xml version="1.0" encoding="UTF-8"?>
<svg id="_Слой_2" data-name="Слой 2" xmlns="http://www.w3.org/2000/svg" viewBox="0 0 66.12 30.91">
  <defs>
    <style>
      .cls-1 {
        fill: #333;
        fill-rule: evenodd;
      }

      .cls-2 {
        fill: none;
        stroke: #333;
        stroke-miterlimit: 10;
        stroke-width: .75px;
      }
    </style>
  </defs>
  <g id="_Слой_1-2" data-name="Слой 1">
    <g>
      <path class="cls-1" d="M30.51,27.1c-1.14-.07-2.44-.28-3.48-.58-.19-.06-1-.35-1.2-.45-3.6-1.66-6.1-5.31-6.1-9.53,0-5.79,4.71-10.5,10.5-10.5s10.42,4.63,10.49,10.36h3.79c-.08-7.82-6.46-14.14-14.29-14.14s-14.29,6.41-14.29,14.29c0,5.44,3.05,10.16,7.53,12.57.8.43,1.96.87,2.36.99,1.27.38,2.84.63,4.24.74.47.03,2.13.06,2.61.06h26.12v-3.78h-26.07c-.35,0-1.87,0-2.21-.02ZM32.71,21.17h0c-.28,0-1.72,0-1.99-.03-.45-.04-1.1-.11-1.53-.2-.47-.13-.92-.29-1.12-.41-1.41-.76-2.37-2.26-2.37-3.97,0-2.5,2.02-4.52,4.52-4.52s4.43,1.95,4.51,4.37h3.64c-.07-4.44-3.7-8.02-8.16-8.02s-8.17,3.65-8.17,8.16c0,3.18,1.83,5.93,4.48,7.27.41.24,1.18.49,1.4.54.75.19,1.75.33,2.57.39.3.02,1.79.03,2.09.04h0s26.19,0,26.19,0v-3.65h-26.07ZM13.59,30.9h-3.81V6.06h-5.58v-3.82h9.4v28.66ZM0,7.97v3.67h4.2v19.26h3.67V7.97H0Z"/>
      <path class="cls-2" d="M56.42,4.39h1.79V.91l7.37,7.37-7.37,7.37v-4.67c-6.19,0-8.16.66-10.95,6.6h0v-5c0-4.13,3.02-7.75,7.02-8.12.54-.05,2.15-.09,2.15-.09h0Z"/>
    </g>
  </g>
</svg>