<svg width="31" height="30" viewBox="0 0 31 30" fill="none" xmlns="http://www.w3.org/2000/svg">
<g clip-path="url(#clip0_2024_3570)">
<path d="M26.605 23.5C26.6026 25.0182 26 26.4736 24.9291 27.5471C23.8582 28.6207 22.4065 29.2249 20.892 29.2273H10.7991C9.28464 29.2249 7.83291 28.6207 6.76204 27.5471C5.69116 26.4736 5.08849 25.0182 5.08609 23.5V6.61818H27.0131V5.84546H4.28809V23.5C4.28927 24.3556 4.45869 25.2025 4.78666 25.9923C5.11462 26.7822 5.59469 27.4995 6.19942 28.1032C6.80414 28.7069 7.52164 29.1852 8.3109 29.5106C9.10015 29.8361 9.94566 30.0024 10.7991 30H20.892C22.6109 29.9976 24.2587 29.312 25.4741 28.0935C26.6895 26.8751 27.3734 25.2232 27.3758 23.5V9.27273H26.605V23.5Z" fill="#333333"/>
<path d="M9.24834 13.2364H8.47754V22.6091H9.24834V13.2364Z" fill="#333333"/>
<path d="M16.0857 11.4182H15.3149V24.4272H16.0857V11.4182Z" fill="#333333"/>
<path d="M22.9139 13.2364H22.1431V22.6091H22.9139V13.2364Z" fill="#333333"/>
<path d="M20.2753 2.63636L19.6768 1.05455C19.5686 0.74767 19.3686 0.481734 19.1041 0.29301C18.8395 0.104286 18.5234 0.00196395 18.1987 0H13.7281C13.4034 0.00196395 13.0872 0.104286 12.8227 0.29301C12.5582 0.481734 12.3582 0.74767 12.2499 1.05455L11.6514 2.63636H3.22705V3.42727H28.6816V2.62727L20.2753 2.63636ZM13.0207 1.33636C13.0718 1.17541 13.1719 1.03452 13.3068 0.933443C13.4418 0.832364 13.605 0.776167 13.7734 0.772729H18.2441C18.4121 0.777497 18.5747 0.834201 18.7094 0.93509C18.8441 1.03598 18.9445 1.17613 18.9967 1.33636L19.4955 2.63636H12.4948L13.0207 1.33636Z" fill="#333333"/>
</g>
<defs>
<clipPath id="clip0_2024_3570">
<rect width="30" height="30" fill="white" transform="translate(0.5)"/>
</clipPath>
</defs>
</svg>
