<svg width="30" height="30" viewBox="0 0 30 30" fill="none" xmlns="http://www.w3.org/2000/svg">
<path d="M15.041 28.5L14.767 28.3082C14.401 28.0389 14.0532 27.7477 13.726 27.4363L2.86791 17.0955C2.53476 16.7892 2.22928 16.4567 1.9547 16.1015C0.57142 14.3731 -0.116442 12.2282 0.016134 10.0566C0.14871 7.88504 1.09292 5.83097 2.67717 4.26771C4.26141 2.70445 6.38052 1.73578 8.64935 1.53774C10.9182 1.33971 13.1861 1.92546 15.041 3.18854C16.877 1.97991 19.0978 1.42208 21.3191 1.61155C23.5403 1.80102 25.6224 2.72588 27.2049 4.22611C28.8238 5.77179 29.8067 7.82163 29.9744 10.0017C30.142 12.1817 29.4832 14.3466 28.1181 16.1015C27.8417 16.4553 27.5363 16.7876 27.2049 17.0955L16.3834 27.4624C16.0637 27.7782 15.7186 28.0697 15.3515 28.3343L15.041 28.5ZM9.61652 2.44742C8.01366 2.43559 6.43929 2.85203 5.07131 3.64968C3.70333 4.44732 2.59628 5.59437 1.87527 6.96121C1.15425 8.32805 0.848004 9.86019 0.991142 11.3845C1.13428 12.9088 1.72109 14.3645 2.68527 15.5871C2.92595 15.897 3.19159 16.1885 3.47976 16.459L14.3743 26.8434C14.5842 27.0451 14.8069 27.2344 15.041 27.4101C15.2751 27.2344 15.4977 27.0451 15.7076 26.8434L26.5657 16.4764C26.8538 16.2059 27.1195 15.9144 27.3602 15.6045C28.5958 14.0194 29.1952 12.0639 29.0494 10.0929C28.9036 8.12187 28.0224 6.26613 26.5657 4.8626C25.0968 3.4705 23.1537 2.62751 21.0894 2.48672C19.025 2.34593 16.9761 2.91669 15.3149 4.09532L15.041 4.29586L14.767 4.09532C13.2823 3.0282 11.4749 2.44994 9.61652 2.44742Z" fill="#333333"/>
</svg>
