<svg width="29" height="25" viewBox="0 0 29 25" fill="none" xmlns="http://www.w3.org/2000/svg">
<path d="M28.4991 19.4182C28.632 19.4182 28.7594 19.4708 28.8533 19.5644C28.9472 19.658 29 19.785 29 19.9174C29 20.0497 28.9472 20.1767 28.8533 20.2703C28.7594 20.3639 28.632 20.4165 28.4991 20.4165H21.8092V19.4182H28.4991Z" fill="#333333"/>
<path d="M0.500864 20.4165C0.368026 20.4165 0.24063 20.3639 0.1467 20.2703C0.0527695 20.1767 0 20.0497 0 19.9174C0 19.785 0.0527695 19.658 0.1467 19.5644C0.24063 19.4708 0.368026 19.4182 0.500864 19.4182H13.5233V20.4165H0.500864Z" fill="#333333"/>
<path d="M17.6605 24.4998C16.7498 24.5058 15.8579 24.2421 15.0978 23.7422C14.3378 23.2423 13.7438 22.5287 13.3912 21.6919C13.0385 20.8551 12.9432 19.9329 13.1172 19.042C13.2912 18.1511 13.7267 17.3318 14.3685 16.688C15.0104 16.0441 15.8296 15.6047 16.7223 15.4255C17.615 15.2462 18.541 15.3352 19.3829 15.6811C20.2249 16.0271 20.9447 16.6144 21.4513 17.3686C21.9579 18.1228 22.2283 19.0099 22.2283 19.9175C22.231 21.1284 21.7515 22.291 20.8952 23.15C20.0388 24.0091 18.8755 24.4946 17.6605 24.4998ZM17.6605 16.3434C16.9475 16.3375 16.2489 16.5429 15.6533 16.9335C15.0578 17.3242 14.5922 17.8824 14.3157 18.5373C14.0392 19.1923 13.9642 19.9143 14.1004 20.6118C14.2366 21.3093 14.5777 21.9507 15.0804 22.4545C15.5831 22.9584 16.2248 23.3019 16.9238 23.4415C17.6229 23.5811 18.3478 23.5105 19.0065 23.2386C19.6652 22.9667 20.228 22.5058 20.6233 21.9144C21.0186 21.3231 21.2286 20.628 21.2266 19.9175C21.2266 18.973 20.8515 18.067 20.1833 17.3973C19.5151 16.7276 18.6081 16.3487 17.6605 16.3434Z" fill="#333333"/>
<path d="M0.500864 5.59132C0.368026 5.59132 0.24063 5.53873 0.1467 5.44512C0.0527695 5.35151 0 5.22454 0 5.09216C0 4.95977 0.0527695 4.8328 0.1467 4.73919C0.24063 4.64558 0.368026 4.59299 0.500864 4.59299H7.18689V5.59132H0.500864Z" fill="#333333"/>
<path d="M28.4991 4.59299C28.632 4.59299 28.7594 4.64558 28.8533 4.73919C28.9472 4.8328 29 4.95977 29 5.09216C29 5.22454 28.9472 5.35151 28.8533 5.44512C28.7594 5.53873 28.632 5.59132 28.4991 5.59132H15.3396V4.59299H28.4991Z" fill="#333333"/>
<path d="M11.3396 9.66457C10.4294 9.6705 9.53793 9.40705 8.77808 8.90759C8.01823 8.40813 7.42423 7.69514 7.07132 6.85895C6.71841 6.02275 6.62248 5.10098 6.79567 4.2104C6.96887 3.31982 7.40339 2.50051 8.04421 1.85626C8.68502 1.21202 9.50329 0.771821 10.3953 0.591442C11.2874 0.411064 12.2131 0.49862 13.0552 0.843018C13.8973 1.18742 14.6178 1.77316 15.1256 2.52604C15.6334 3.27893 15.9055 4.16507 15.9075 5.07222C15.9102 5.67268 15.7941 6.26777 15.566 6.82352C15.3378 7.37928 15.0021 7.88481 14.5779 8.31125C14.1538 8.73769 13.6495 9.07669 13.0938 9.30889C12.5382 9.54109 11.9421 9.66195 11.3396 9.66457ZM11.3396 1.50816C10.6263 1.50223 9.92726 1.70788 9.3315 2.09896C8.73574 2.49004 8.27014 3.04888 7.99393 3.7044C7.71772 4.35992 7.64338 5.0825 7.78036 5.78024C7.91734 6.47798 8.25945 7.11936 8.76318 7.6228C9.26691 8.12624 9.90951 8.46899 10.6092 8.60746C11.309 8.74593 12.0342 8.67387 12.6927 8.40043C13.3512 8.127 13.9133 7.66455 14.3073 7.0719C14.7014 6.47925 14.9097 5.78319 14.9058 5.07222C14.9032 4.12951 14.5269 3.22601 13.859 2.55847C13.1911 1.89093 12.2855 1.51342 11.3396 1.50816Z" fill="#333333"/>
</svg>
