<svg width="26" height="19" viewBox="0 0 26 19" fill="none" xmlns="http://www.w3.org/2000/svg">
<g clip-path="url(#clip0_52_700)">
<path d="M21.5909 0.431808H3.45458C1.78518 0.431808 0.431854 1.78513 0.431854 3.45454V15.5454C0.431854 17.2149 1.78518 18.5682 3.45458 18.5682H21.5909C23.2604 18.5682 24.6137 17.2149 24.6137 15.5454V3.45454C24.6137 1.78513 23.2604 0.431808 21.5909 0.431808Z" stroke="#848484" stroke-width="0.863636"/>
<line x1="0.399503" y1="-0.399503" x2="17.6449" y2="-0.399503" transform="matrix(-0.724677 0.689089 -0.672254 -0.74032 19.1563 3.04001)" stroke="#848484" stroke-width="0.799005" stroke-linecap="round"/>
<path d="M16.9626 10.8639C18.1643 10.8639 19.1548 11.8634 19.1549 13.1158C19.1549 14.3683 18.1644 15.3678 16.9626 15.3678C15.7609 15.3676 14.7711 14.3682 14.7711 13.1158C14.7713 11.8635 15.761 10.8641 16.9626 10.8639Z" stroke="#848484" stroke-width="0.799005"/>
<path d="M8.67084 3.43941C9.87257 3.43941 10.8631 4.43894 10.8632 5.69136C10.8632 6.94388 9.87264 7.94331 8.67084 7.94331C7.4692 7.94311 6.47943 6.94376 6.47943 5.69136C6.47955 4.43907 7.46927 3.43961 8.67084 3.43941Z" stroke="#848484" stroke-width="0.799005"/>
</g>
<defs>
<clipPath id="clip0_52_700">
<rect width="25.0455" height="19" fill="white"/>
</clipPath>
</defs>
</svg>
