<?xml version="1.0" encoding="utf-8"?>
<!-- Generator: Adobe Illustrator 27.2.0, SVG Export Plug-In . SVG Version: 6.00 Build 0)  -->
<svg version="1.1" id="Слой_1" xmlns="http://www.w3.org/2000/svg" xmlns:xlink="http://www.w3.org/1999/xlink" x="0px" y="0px"
	 viewBox="0 0 31 33" style="enable-background:new 0 0 31 33;" xml:space="preserve">
<style type="text/css">
	.st0{fill:#333333;}
</style>
<g>
	<path class="st0" d="M7.9,15.9c0.3,0,0.5-0.2,0.5-0.5v-4.4C11,10.9,13,8.7,13.3,6c0.8-1.3,1.9-2.3,3.2-3.1C19,1.4,21.6,1.4,23,1.6
		v25.3c0,0.3,0.2,0.5,0.5,0.5s0.5-0.2,0.5-0.5V1.1c0-0.2-0.2-0.4-0.4-0.5C22.3,0.5,19,0.2,16,2c-1.4,0.8-2.6,2-3.4,3.3
		c-0.1,0.1-0.2,0.2-0.2,0.3c-0.2,2.5-2.1,4.5-4.4,4.5c-0.3,0-0.5,0.2-0.5,0.5v4.8C7.5,15.7,7.7,15.9,7.9,15.9z"/>
	<path class="st0" d="M30,6.6h-3.9c-0.3,0-0.5,0.2-0.5,0.5s0.2,0.5,0.5,0.5h3.4v2.1h-1.1c-0.3,0-0.5,0.2-0.5,0.5s0.2,0.5,0.5,0.5
		h1.1v4.7h-3.3c-0.3,0-0.5,0.2-0.5,0.5c0,0.3,0.2,0.5,0.5,0.5h3.3v7.1c0,0,0,0-0.1,0h-1.5c-0.3,0-0.5,0.2-0.5,0.5s0.2,0.5,0.5,0.5
		h1.5c0,0,0,0,0.1,0v7.1h-7.6c-0.3,0-0.5,0.2-0.5,0.5c0,0.3,0.2,0.5,0.5,0.5H30c0.3,0,0.5-0.2,0.5-0.5V7.1C30.5,6.8,30.3,6.6,30,6.6
		z"/>
	<path class="st0" d="M16.3,17.3H4c-1.9,0-3.5,1.6-3.5,3.5V29c0,1.9,1.6,3.5,3.5,3.5h12.4c1.9,0,3.5-1.6,3.5-3.5v-8.2
		C19.8,18.9,18.3,17.3,16.3,17.3z M18.9,26.8h-5.7c-1,0-1.8-0.8-1.8-1.9c0-1,0.8-1.9,1.8-1.9h5.7V26.8z M18.9,22.1h-5.7
		c-1.5,0-2.8,1.3-2.8,2.8c0,1.6,1.2,2.8,2.8,2.8h5.7V29c0,1.4-1.1,2.5-2.5,2.5H4c-1.4,0-2.5-1.1-2.5-2.5v-8.2c0-1.4,1.1-2.5,2.5-2.5
		h12.4c1.4,0,2.5,1.1,2.5,2.5V22.1z"/>
	<ellipse class="st0" cx="13.6" cy="24.9" rx="0.9" ry="0.9"/>
</g>
</svg>
