<?xml version="1.0" encoding="UTF-8"?>
<svg id="_Слой_2" data-name="Слой 2" xmlns="http://www.w3.org/2000/svg" viewBox="0 0 43 43">
  <defs>
    <style>
      .cls-1 {
        fill: #fff;
      }

      .cls-2 {
        fill: #333;
      }
    </style>
  </defs>
  <g id="_Слой_1-2" data-name="Слой 1">
    <g>
      <g>
        <path class="cls-2" d="M30.29,28.5c0,2.59-2.11,4.71-4.71,4.71h-8.36c-2.59,0-4.71-2.11-4.71-4.71v-13.89h18.12v-.63H11.87v14.53c0,2.95,2.4,5.35,5.35,5.35h8.35c2.95,0,5.35-2.4,5.35-5.35v-11.7h-.63v11.7Z"/>
        <rect class="cls-2" x="15.34" y="20.05" width=".63" height="7.71"/>
        <rect class="cls-2" x="20.97" y="18.55" width=".63" height="10.7"/>
        <rect class="cls-2" x="26.61" y="20.05" width=".63" height="7.71"/>
        <path class="cls-2" d="M25.06,11.33l-.49-1.3c-.2-.53-.68-.87-1.22-.87h-3.68c-.55,0-1.02.34-1.22.87l-.49,1.3h-6.95v.66h21v-.66h-6.94ZM19.05,10.25c.1-.28.35-.46.62-.46h3.68c.27,0,.52.18.62.46l.41,1.07h-5.75l.41-1.07Z"/>
      </g>
    </g>
  </g>
</svg>