<?xml version="1.0" encoding="utf-8"?>
<!-- Generator: Adobe Illustrator 27.2.0, SVG Export Plug-In . SVG Version: 6.00 Build 0)  -->
<svg version="1.1" id="Слой_1" xmlns="http://www.w3.org/2000/svg" xmlns:xlink="http://www.w3.org/1999/xlink" x="0px" y="0px"
	 viewBox="0 0 30 35.1" style="enable-background:new 0 0 30 35.1;" xml:space="preserve">
<style type="text/css">
	.st0{fill:#333333;}
</style>
<g>
	<path class="st0" d="M18,33.2H1.4c-0.2,0-0.4,0.1-0.4,0.4s0.1,0.4,0.4,0.4H18c0.2,0,0.4-0.1,0.4-0.4S18.2,33.2,18,33.2z"/>
	<path class="st0" d="M28.6,1.3c-1.1-0.2-4.2-0.5-7.2,1.3c-1.3,0.8-2.5,1.8-3.3,3.2C18,5.9,18,5.9,18,6.1c-0.1,2.5-2.1,4.4-4.4,4.4
		c-0.2,0-0.4,0.1-0.4,0.4V29c0,0.2,0.1,0.4,0.4,0.4H29v-0.7H14V11.2c2.5-0.2,4.5-2.3,4.7-4.9c0.8-1.2,1.8-2.3,3-3
		c2.4-1.5,5-1.4,6.4-1.3v24.7H29V1.7C29,1.5,28.8,1.3,28.6,1.3z"/>
	<rect x="15.7" y="17.8" class="st0" width="10.6" height="0.6"/>
	<rect x="16.9" y="15.8" class="st0" width="8.1" height="0.6"/>
	<path class="st0" d="M3.7,31.6c0.2,0,0.4-0.1,0.4-0.4V14c3.5,0.1,4.7,0.9,5.6,1.6h0.1c0.7,0.6,1.3,1.1,2.7,1.1
		c0.2,0,0.4-0.1,0.4-0.4S12.6,16,12.4,16c-1.1,0-1.6-0.4-2.3-0.9c-1-0.8-2.3-1.8-6.5-1.8c-0.2,0-0.4,0.1-0.4,0.4v17.6
		C3.3,31.4,3.5,31.6,3.7,31.6z"/>
</g>
</svg>
