<?xml version="1.0" encoding="UTF-8"?>
<svg id="_Слой_2" data-name="Слой 2" xmlns="http://www.w3.org/2000/svg" viewBox="0 0 43 43">
  <defs>
    <style>
      .cls-1 {
        fill: #fff;
      }

      .cls-2 {
        fill: #333;
        stroke: #333;
        stroke-miterlimit: 10;
        stroke-width: .5px;
      }
    </style>
  </defs>
  <g id="_Слой_1-2" data-name="Слой 1">
    <g>
      <path class="cls-2" d="M30.07,23.2c-.06.1-.13.19-.21.28.53.37,1.03.78,1.51,1.21-1.29.64-2.11,1.95-2.11,3.4,0,2.09,1.7,3.79,3.79,3.79.88,0,1.72-.3,2.4-.86.44,1.36.68,2.8.7,4.3H15.1c0-.06.01-.11.01-.17,0-1.44-1.05-2.66-2.46-2.89-.02-.13-.04-.26-.07-.39,0-.04-.02-.08-.03-.13-.02-.08-.04-.17-.07-.25-.02-.05-.03-.1-.05-.15-.02-.07-.05-.14-.08-.21-.02-.05-.04-.1-.07-.15-.03-.07-.06-.13-.09-.19-.03-.05-.05-.1-.08-.15-.03-.06-.06-.12-.1-.18-.03-.05-.06-.1-.09-.15-.04-.06-.07-.11-.11-.17-.03-.05-.07-.09-.11-.14-.04-.05-.08-.11-.12-.16-.04-.05-.08-.09-.12-.13-.04-.05-.09-.1-.13-.15-.04-.04-.08-.08-.13-.12-.05-.05-.1-.09-.15-.13-.04-.04-.09-.08-.14-.12-.05-.04-.1-.08-.16-.12-.05-.04-.1-.07-.15-.1-.05-.04-.11-.07-.16-.11-.05-.03-.1-.06-.15-.09-.06-.03-.11-.07-.17-.1-.05-.03-.11-.06-.16-.08-.06-.03-.12-.06-.18-.08-.06-.02-.11-.05-.17-.07-.06-.02-.13-.05-.19-.07-.06-.02-.12-.04-.18-.06-.06-.02-.13-.04-.2-.05-.06-.02-.12-.03-.18-.04-.01,0-.03,0-.04,0,1.34-2.32,3.3-4.24,5.65-5.53.75.51,1.63.78,2.55.78,1.22,0,2.37-.48,3.24-1.34.28-.28.52-.6.72-.94v4.7h-1.9c-.19,0-.34.15-.34.34s.15.34.34.34h4.41c.19,0,.34-.15.34-.34s-.15-.34-.34-.34h-1.82v-4.57c.18.3.4.57.64.82.86.87,2.01,1.34,3.24,1.34s2.37-.48,3.24-1.34c1.75-1.75,2.03-8.07,2.04-8.34v-.19s-.18,0-.18,0c-.17,0-2.62.12-4.9.61-.45-2.49-4.14-6.53-4.31-6.71l-.13-.14-.13.14c-.17.18-3.87,4.24-4.31,6.73-2.29-.5-4.8-.62-4.97-.63h-.19s0,.18,0,.18c.01.27.3,6.59,2.04,8.34.12.12.25.23.38.34-4.21,2.21-6.03,6.24-6.09,6.35-.06.13-.13.26-.19.39-.07.15-.14.31-.2.46-.06.13-.11.26-.17.39-.06.16-.12.32-.17.48-.05.13-.1.26-.14.4-.05.16-.1.33-.15.5-.04.13-.08.26-.11.4-.04.17-.08.35-.12.52-.03.13-.06.26-.09.39-.03.18-.06.37-.09.55-.02.12-.04.25-.06.37-.03.21-.04.41-.06.62,0,.1-.02.21-.03.31-.02.31-.03.62-.03.94v.17h30v-.17c0-5.08-2.55-9.58-6.43-12.29ZM33.05,31.53c-1.9,0-3.45-1.55-3.45-3.45,0-1.36.8-2.58,2.04-3.14,1.64,1.58,2.92,3.53,3.68,5.72-.63.56-1.43.86-2.28.86ZM30.49,13.93c-.06,1.08-.44,6.43-1.93,7.92-.8.8-1.86,1.24-2.99,1.24s-2.19-.44-2.99-1.24c-.38-.38-.68-.83-.89-1.32v-1.42c2.31-.18,4.13-2.11,4.13-4.46,0-.04,0-.08,0-.12,1.94-.42,4.05-.57,4.68-.6ZM21.34,7.84c.71.8,4.13,4.75,4.13,6.81,0,2.28-1.85,4.13-4.13,4.13s-4.13-1.85-4.13-4.13c0-2.06,3.43-6.01,4.13-6.81ZM14.05,21.85c-1.49-1.49-1.87-6.85-1.93-7.92.64.04,2.8.19,4.75.62,0,.03,0,.07,0,.1,0,2.35,1.83,4.28,4.13,4.46v1.24c-.21.56-.53,1.08-.96,1.5-.8.8-1.86,1.24-2.99,1.24s-2.19-.44-2.99-1.24ZM14.76,35.32h-7.89c.03-2.47.67-4.79,1.78-6.82.03,0,.07.01.1.02.06.01.12.02.18.04.06.01.12.03.18.05.06.02.12.03.18.05.06.02.12.04.18.07.06.02.11.04.17.06.06.02.12.05.17.08.05.03.11.05.16.08.06.03.11.06.17.09.05.03.1.06.15.09.05.03.11.07.16.11.05.03.09.06.14.1.05.04.1.08.15.12.04.04.09.07.13.11.05.04.09.09.14.13.04.04.08.08.12.12.05.05.09.1.13.15.04.04.07.08.11.12.04.05.08.1.12.16.03.04.07.09.1.13.04.05.07.11.11.17.03.05.06.09.09.14.03.06.06.12.09.18.02.05.05.09.07.14.03.06.05.13.08.19.02.05.04.1.06.15.02.07.05.14.07.2.02.05.03.1.05.15.02.08.04.16.06.24,0,.04.02.08.03.13.02.12.04.25.06.37v.14s.15.02.15.02c1.3.15,2.29,1.25,2.29,2.57,0,.06,0,.12,0,.17Z"/>
    </g>
  </g>
</svg>