<?xml version="1.0" encoding="UTF-8"?>
<svg id="_Слой_2" data-name="Слой 2" xmlns="http://www.w3.org/2000/svg" viewBox="0 0 43 43">
  <defs>
    <style>
      .cls-1 {
        fill: #fff;
      }

      .cls-2 {
        fill: #333;
      }
    </style>
  </defs>
  <g id="_Слой_1-2" data-name="Слой 1">
    <g>
      <path class="cls-2" d="M39.56,16.83l-.06.03-19.93-3.99-.1-.02L2.49,18.84l-.1-.04-.35.38.08.16v4.13l19.4,9.19,18.35-11.22v-4.04l.1-.2-.42-.38ZM21.48,26.82l-13.14-5.53,11.19-4.66,14.04,3.5-12.1,6.69ZM19.12,15.99l-11.76,4.9-3.84-1.61,15.6-5.51v2.22ZM34.53,19.6l-14.66-3.66v-2.25l18.61,3.72-3.95,2.18ZM2.87,19.81l18.25,7.67v4.16L2.87,23v-3.19ZM39.12,21.03l-17.25,10.54v-4.11l17.25-9.54v3.1Z"/>
    </g>
  </g>
</svg>