<?xml version="1.0" encoding="UTF-8"?>
<svg id="_Слой_2" data-name="Слой 2" xmlns="http://www.w3.org/2000/svg" viewBox="0 0 43 43">
  <defs>
    <style>
      .cls-1 {
        fill: #fff;
      }

      .cls-2 {
        fill: #333;
      }
    </style>
  </defs>
  <g id="_Слой_1-2" data-name="Слой 1">
    <g>
      <path class="cls-2" d="M33.43,9.5H9.06l-3.13,24h31.15l-3.65-24ZM17.66,18.01h7.83l.49,7h-8.88l.56-7ZM16.1,25.01h-8.05l.91-7h7.7l-.56,7ZM17.74,17.01l.52-6.51h6.7l.45,6.51h-7.68ZM34.78,25.01h-7.8l-.49-7h7.22l1.07,7ZM26.05,26.01l.45,6.49h-9.99l.52-6.49h9.02ZM27.05,26.01h7.88l.99,6.49h-8.74l.32-.02-.45-6.47ZM33.56,17.01h-7.14l-.45-6.51h6.6l.99,6.51ZM17.26,10.5l-.52,6.51h-7.65l.85-6.51h7.32ZM7.92,26.01h8.1l-.52,6.46.34.03H7.07l.85-6.49Z"/>
    </g>
  </g>
</svg>