<svg width="37" height="33" viewBox="0 0 37 33" fill="none" xmlns="http://www.w3.org/2000/svg">
<path d="M6.63157 29.389H6.05176V20.6911C6.05176 13.5084 11.156 7.40803 17.6765 6.77832C18.5414 6.6996 21.0603 6.64057 21.1648 6.64057H23.7027V0.304077L36.4395 13.4985L23.7027 26.6832V18.3887C14.074 18.3887 11.099 19.5595 6.73612 29.2119L6.63157 29.389ZM20.8892 7.37851C20.2238 7.37851 18.3798 7.45723 17.6955 7.51626C11.5837 8.06726 6.75513 13.8921 6.75513 20.6911V27.4211C10.9184 18.8413 14.2832 17.6507 24.0449 17.6507H24.4061V24.9023L35.4225 13.4985L24.4061 2.08498V7.37851H20.8892Z" fill="#333333"/>
<path d="M25.7907 33H4.84677C3.65058 32.9974 2.50412 32.5207 1.65827 31.6744C0.812434 30.828 0.336094 29.6807 0.333496 28.4838V7.52611C0.336094 6.32914 0.812434 5.18193 1.65827 4.33553C2.50412 3.48914 3.65058 3.01249 4.84677 3.00989H19.7632V3.74783H4.84677C3.84707 3.75044 2.8892 4.14966 2.18322 4.85794C1.47725 5.56622 1.08079 6.52575 1.08079 7.52611V28.4838C1.08079 29.4858 1.4786 30.4468 2.1867 31.1554C2.8948 31.864 3.8552 32.262 4.8566 32.262H25.8006C26.2981 32.2646 26.7912 32.1688 27.2515 31.9801C27.7119 31.7914 28.1305 31.5135 28.4832 31.1624C28.8359 30.8113 29.1158 30.3939 29.3067 29.9342C29.4977 29.4745 29.596 28.9816 29.596 28.4838V22.1866H30.3335V28.4838C30.3322 29.079 30.2136 29.6681 29.9845 30.2174C29.7554 30.7666 29.4202 31.2653 28.9983 31.6848C28.5763 32.1043 28.0758 32.4364 27.5254 32.6621C26.975 32.8878 26.3855 33.0026 25.7907 33Z" fill="#333333"/>
<path d="M22.3096 3H19.7334V3.73795H22.3096V3Z" fill="#333333"/>
</svg>
